<svg xmlns="http://www.w3.org/2000/svg" version="1.1" xmlns:xlink="http://www.w3.org/1999/xlink" xmlns:svgjs="http://svgjs.dev/svgjs" width="2000" height="333" viewBox="0 0 2000 333"><g transform="matrix(1,0,0,1,-1.2121212121213603,-2.310031629050343)"><svg viewBox="0 0 396 66" data-background-color="#5cadff" preserveAspectRatio="xMidYMid meet" height="333" width="2000" xmlns="http://www.w3.org/2000/svg" xmlns:xlink="http://www.w3.org/1999/xlink"><g id="tight-bounds" transform="matrix(1,0,0,1,0.24000000000003752,0.4578441066586265)"><svg viewBox="0 0 395.5199999999999 65.0841135493807" height="65.0841135493807" width="395.5199999999999"><g><svg viewBox="0 0 489.90669862970293 80.61575445544554" height="65.0841135493807" width="395.5199999999999"><g transform="matrix(1,0,0,1,94.38669862970296,11.141540594059407)"><svg viewBox="0 0 395.52 58.332673267326726" height="58.332673267326726" width="395.52"><g id="textblocktransform"><svg viewBox="0 0 395.52 58.332673267326726" height="58.332673267326726" width="395.52" id="textblock"><g><svg viewBox="0 0 395.52 58.332673267326726" height="58.332673267326726" width="395.52"><g transform="matrix(1,0,0,1,0,0)"><svg width="395.52" viewBox="3.05 -35.1 242.38 35.75" height="58.332673267326726" data-palette-color="#333333"><g class="wordmark-text-0" data-fill-palette-color="primary" id="text-0"><path d="M16.6-35.1L16.6-35.1Q18.8-35.1 20.38-35 21.95-34.9 23.28-34.68 24.6-34.45 26-34.1L26-34.1 25.55-30.75Q24.05-30.9 22.78-31 21.5-31.1 20.05-31.15 18.6-31.2 16.6-31.2L16.6-31.2Q13.25-31.2 11.3-29.9 9.35-28.6 8.53-25.55 7.7-22.5 7.7-17.25L7.7-17.25Q7.7-12 8.53-8.95 9.35-5.9 11.3-4.6 13.25-3.3 16.6-3.3L16.6-3.3Q19.8-3.3 21.98-3.43 24.15-3.55 26.25-3.85L26.25-3.85 26.7-0.55Q24.55 0.05 22.28 0.33 20 0.6 16.6 0.6L16.6 0.6Q11.65 0.6 8.68-1.13 5.7-2.85 4.38-6.75 3.05-10.65 3.05-17.25L3.05-17.25Q3.05-23.85 4.38-27.75 5.7-31.65 8.68-33.38 11.65-35.1 16.6-35.1ZM42.7-24.95L42.7-24.95Q46.9-24.95 49.42-23.7 51.95-22.45 53.05-19.63 54.15-16.8 54.15-12.15L54.15-12.15Q54.15-7.5 53.05-4.67 51.95-1.85 49.42-0.6 46.9 0.65 42.7 0.65L42.7 0.65Q38.55 0.65 36.02-0.6 33.5-1.85 32.37-4.67 31.25-7.5 31.25-12.15L31.25-12.15Q31.25-16.8 32.37-19.63 33.5-22.45 36.02-23.7 38.55-24.95 42.7-24.95ZM42.7-21.35L42.7-21.35Q40.05-21.35 38.52-20.53 37-19.7 36.35-17.7 35.7-15.7 35.7-12.15L35.7-12.15Q35.7-8.6 36.35-6.6 37-4.6 38.52-3.78 40.05-2.95 42.7-2.95L42.7-2.95Q45.35-2.95 46.9-3.78 48.45-4.6 49.1-6.6 49.75-8.6 49.75-12.15L49.75-12.15Q49.75-15.7 49.1-17.7 48.45-19.7 46.9-20.53 45.35-21.35 42.7-21.35ZM73.09-34.95L73.09-34.95Q77.25-34.95 79.67-34 82.09-33.05 83.15-30.73 84.2-28.4 84.2-24.15L84.2-24.15Q84.2-19.9 83.17-17.55 82.15-15.2 79.82-14.28 77.5-13.35 73.59-13.35L73.59-13.35Q71.5-13.35 69.57-13.45 67.65-13.55 66.05-13.73 64.45-13.9 63.32-14.1 62.2-14.3 61.75-14.45L61.75-14.45 61.9-17.15Q64.55-17.15 67.4-17.15 70.25-17.15 73.05-17.15L73.05-17.15Q75.55-17.2 77.02-17.78 78.5-18.35 79.12-19.88 79.75-21.4 79.75-24.15L79.75-24.15Q79.75-26.95 79.12-28.45 78.5-29.95 77.02-30.55 75.55-31.15 73.05-31.15L73.05-31.15Q68.95-31.15 65.97-31.1 63-31.05 61.95-30.95L61.95-30.95 61.25-34.5Q63.15-34.7 64.8-34.8 66.45-34.9 68.4-34.93 70.34-34.95 73.09-34.95ZM61.25-34.5L65.65-34.5 65.65 0 61.25 0 61.25-34.5ZM90.34-35L94.59-35 94.54-6.7Q94.54-5.1 95.42-4.28 96.29-3.45 97.89-3.45L97.89-3.45 100.24-3.45 100.74-0.2Q100.29 0 99.47 0.15 98.64 0.3 97.77 0.38 96.89 0.45 96.29 0.45L96.29 0.45Q93.59 0.45 91.97-1.15 90.34-2.75 90.34-5.75L90.34-5.75 90.34-35ZM116.64-24.95L116.64-24.95Q119.34-24.95 121.22-24.23 123.09-23.5 124.04-21.8 124.99-20.1 124.99-17.15L124.99-17.15 124.99 0 121.64 0 120.99-5.3 120.69-5.85 120.69-17.15Q120.69-19.4 119.67-20.38 118.64-21.35 115.74-21.35L115.74-21.35Q113.84-21.35 110.97-21.15 108.09-20.95 105.29-20.7L105.29-20.7 104.89-23.85Q106.59-24.15 108.62-24.4 110.64-24.65 112.74-24.8 114.84-24.95 116.64-24.95ZM110.54-15L122.99-15 122.94-11.8 111.29-11.75Q109.54-11.7 108.84-10.83 108.14-9.95 108.14-8.4L108.14-8.4 108.14-6.85Q108.14-4.95 109.04-4.08 109.94-3.2 111.94-3.2L111.94-3.2Q113.34-3.2 115.12-3.73 116.89-4.25 118.69-5.35 120.49-6.45 121.99-8.15L121.99-8.15 121.99-5Q121.44-4.3 120.42-3.38 119.39-2.45 117.97-1.58 116.54-0.7 114.82-0.13 113.09 0.45 111.09 0.45L111.09 0.45Q108.94 0.45 107.29-0.33 105.64-1.1 104.72-2.63 103.79-4.15 103.79-6.35L103.79-6.35 103.79-9Q103.79-11.85 105.57-13.43 107.34-15 110.54-15L110.54-15ZM147.39-24.95L147.39-24.95Q153.99-24.95 153.99-18.25L153.99-18.25 153.99 0 149.74 0 149.74-17.05Q149.74-19.5 148.94-20.43 148.14-21.35 146.24-21.35L146.24-21.35Q143.99-21.35 141.74-20.25 139.49-19.15 136.39-17.25L136.39-17.25 136.19-20.3Q139.04-22.5 141.84-23.73 144.64-24.95 147.39-24.95ZM132.59-24.35L136.19-24.35 136.54-19.7 136.84-18.95 136.84 0 132.59 0 132.59-24.35ZM162.09-34.5L166.49-34.5 166.49 0 162.09 0 162.09-34.5ZM166.09-20.35L182.94-20.35 182.94-16.55 166.09-16.55 166.09-20.35ZM182.39-34.5L186.79-34.5 186.79 0 182.39 0 182.39-34.5ZM194.88-24.35L199.13-24.35 199.13-7.25Q199.08-4.95 199.98-4 200.88-3.05 202.98-3.05L202.98-3.05Q205.03-3.05 207.06-4.03 209.08-5 211.93-6.85L211.93-6.85 212.48-3.9Q209.63-1.65 206.96-0.5 204.28 0.65 201.53 0.65L201.53 0.65Q194.88 0.65 194.88-6.05L194.88-6.05 194.88-24.35ZM211.48-24.35L215.73-24.35 215.73 0 212.33 0 211.93-4.6 211.48-5.35 211.48-24.35ZM236.63-24.95L236.63-24.95Q241.13-24.95 243.28-22.03 245.43-19.1 245.43-12.25L245.43-12.25Q245.43-9.1 244.91-6.7 244.38-4.3 243.16-2.68 241.93-1.05 239.86-0.23 237.78 0.6 234.63 0.6L234.63 0.6Q233.38 0.6 231.93 0.5 230.48 0.4 228.98 0.18 227.48-0.05 226.06-0.38 224.63-0.7 223.43-1.15L223.43-1.15 226.83-4.05Q228.18-3.65 229.51-3.4 230.83-3.15 232.11-3.08 233.38-3 234.53-3L234.53-3Q236.88-3.05 238.31-3.9 239.73-4.75 240.38-6.78 241.03-8.8 241.03-12.25L241.03-12.25Q241.03-15.6 240.53-17.57 240.03-19.55 238.76-20.4 237.48-21.25 235.13-21.25L235.13-21.25Q233.13-21.25 231.33-20.18 229.53-19.1 227.18-17.25L227.18-17.25 226.88-20.1Q228.38-21.7 229.96-22.78 231.53-23.85 233.23-24.4 234.93-24.95 236.63-24.95ZM223.43-35L227.68-35 227.68-25.9Q227.68-24.35 227.61-23.05 227.53-21.75 227.23-20.4L227.23-20.4 227.63-19.7 227.68-0.95 223.43-1.15 223.43-35Z" fill="#333333" data-fill-palette-color="primary"></path></g></svg></g></svg></g></svg></g></svg></g><g><svg viewBox="0 0 80.61575445544554 80.61575445544554" height="80.61575445544554" width="80.61575445544554"><g><svg></svg></g><g id="icon-0"><svg viewBox="0 0 80.61575445544554 80.61575445544554" height="80.61575445544554" width="80.61575445544554"><g><path transform="scale(0.80616,0.80616)" d="M30 100c-16.569 0-30-13.431-30-30v-40c0-16.569 13.431-30 30-30h40c16.569 0 30 13.431 30 30v40c0 16.569-13.431 30-30 30z" fill="#aaeed1" fill-rule="nonzero" stroke="none" stroke-width="1" stroke-linecap="butt" stroke-linejoin="miter" stroke-miterlimit="10" stroke-dasharray="" stroke-dashoffset="0" font-family="none" font-weight="none" font-size="none" text-anchor="none" style="mix-blend-mode: normal" data-fill-palette-color="accent"></path></g><g transform="matrix(1,0,0,1,18.345584057107004,16.123150891089107)"><svg viewBox="0 0 43.92458634123153 48.369452673267325" height="48.369452673267325" width="43.92458634123153"><g><svg xmlns="http://www.w3.org/2000/svg" xmlns:xlink="http://www.w3.org/1999/xlink" version="1.1" x="0" y="0" viewBox="10.467 6.753 78.533 86.48" enable-background="new 0 0 100 100" xml:space="preserve" height="48.369452673267325" width="43.92458634123153" class="icon-dxe-0" data-fill-palette-color="quaternary" id="dxe-0"><path d="M61.086 59.727C52.293 68.197 43.322 75.521 35.62 80.499 25.724 86.896 22.121 86.797 21.389 86.676 21.31 86.151 21.264 84.155 23.641 79.468A39.4 39.4 0 0 1 18.928 74.475C14.36 82.653 13.629 88.183 16.701 91.298 17.971 92.587 19.662 93.233 21.791 93.233 25.649 93.233 30.946 91.112 37.787 86.847 46.168 81.622 55.999 73.691 65.673 64.364L68.364 70.215C68.792 64.563 71.231 57.22 73.741 51.854 68.339 54.286 60.962 56.62 55.303 56.966z" fill="#5cadff" data-fill-palette-color="quaternary"></path><path d="M71.344 17.36C69.557 18.227 67.296 19.484 64.466 21.312 57.592 25.756 49.555 32.212 41.607 39.66L52.114 44.677 43.735 45.191C37.979 45.543 30.614 48.064 26.056 50.115L20.712 52.52 23.195 47.212C25.312 42.686 27.939 35.36 28.374 29.608L29.007 21.235 33.936 31.952C42.584 23.824 51.334 16.823 58.914 11.965A39.3 39.3 0 0 0 49.733 10.875C28.047 10.875 10.467 28.455 10.467 50.141 10.467 63.628 17.269 75.524 27.627 82.593 29.404 81.727 31.644 80.48 34.439 78.673 41.314 74.229 49.351 67.773 57.299 60.325L46.791 55.307 55.17 54.794C60.926 54.441 68.291 51.92 72.849 49.869L78.193 47.463 75.71 52.771C73.593 57.296 70.967 64.623 70.531 70.375L69.898 78.748 64.97 68.034C56.25 76.227 47.429 83.275 39.805 88.138A39.3 39.3 0 0 0 49.734 89.407C71.42 89.407 89 71.827 89 50.142 89 36.441 81.979 24.386 71.344 17.36" fill="#5cadff" data-fill-palette-color="quaternary"></path><path d="M37.82 40.26C46.614 31.79 55.585 24.466 63.287 19.487 73.183 13.09 76.785 13.19 77.517 13.31 77.596 13.835 77.642 15.832 75.265 20.518A39.5 39.5 0 0 1 79.979 25.512C84.546 17.334 85.278 11.804 82.206 8.688 80.936 7.399 79.245 6.753 77.116 6.753 73.258 6.753 67.961 8.874 61.12 13.139 52.738 18.364 42.908 26.295 33.233 35.622L30.542 29.771C30.115 35.422 27.675 42.766 25.165 48.132 30.568 45.7 37.945 43.366 43.603 43.02z" fill="#5cadff" data-fill-palette-color="quaternary"></path></svg></g></svg></g></svg></g></svg></g></svg></g><defs></defs></svg><rect width="395.5199999999999" height="65.0841135493807" fill="none" stroke="none" visibility="hidden"></rect></g></svg></g></svg>